<svg xmlns="http://www.w3.org/2000/svg" width="48" height="48" fill="none" viewBox="0 0 48 48" role="img" aria-labelledby="title desc">
  <title id="title">Padelito logo mark</title>
  <desc id="desc">Marca circular teal con paleta y pelota de padel estilizadas.</desc>
  <defs>
    <linearGradient id="mark-bg" x1="8" x2="42" y1="7" y2="43" gradientUnits="userSpaceOnUse">
      <stop stop-color="#0F766E"/>
      <stop offset="1" stop-color="#14B8A6"/>
    </linearGradient>
    <linearGradient id="mark-stroke" x1="16" x2="35" y1="10" y2="36" gradientUnits="userSpaceOnUse">
      <stop stop-color="#ECFEFF"/>
      <stop offset="1" stop-color="#A7F3D0"/>
    </linearGradient>
    <filter id="mark-shadow" width="54" height="54" x="-3" y="-1" color-interpolation-filters="sRGB" filterUnits="userSpaceOnUse">
      <feDropShadow dx="0" dy="4" flood-color="#0F766E" flood-opacity=".18" stdDeviation="3"/>
    </filter>
  </defs>
  <g filter="url(#mark-shadow)">
    <circle cx="24" cy="24" r="19" fill="url(#mark-bg)"/>
    <circle cx="24" cy="24" r="18.25" stroke="#ECFEFF" stroke-opacity=".28" stroke-width="1.5"/>
  </g>
  <path stroke="#CCFBF1" stroke-linecap="round" stroke-width="2.2" d="M12.5 31.5c4.3-1 7.5-3 9.7-6.1"/>
  <path stroke="#ECFEFF" stroke-linecap="round" stroke-width="2.2" d="M10.8 36.2c5.8-1.2 10.2-3.8 13.3-7.8"/>
  <g transform="rotate(-36 25.534 24.728)">
    <rect width="15.4" height="22.4" x="17.8" y="12.9" fill="#F8FAFC" rx="7.7"/>
    <rect width="10.8" height="17.8" x="20.1" y="15.2" stroke="url(#mark-stroke)" stroke-opacity=".95" stroke-width="1.8" rx="5.4"/>
    <path stroke="#0F766E" stroke-linecap="round" stroke-width="2.5" d="M25.5 34.4v5.4"/>
    <path stroke="#0F766E" stroke-linecap="round" stroke-width="2.5" d="M22.7 40.1h5.6"/>
  </g>
  <circle cx="34.6" cy="13.6" r="3.2" fill="#ECFEFF"/>
  <path stroke="#0F766E" stroke-linecap="round" stroke-width="1.15" d="M32.2 13.1c1.2 1.1 2.8 1.6 4.5 1.3"/>
</svg>
